<svg width="165" height="25" viewBox="0 0 165 25" fill="none" xmlns="http://www.w3.org/2000/svg">
<path d="M20.952 7.776C22.3813 7.776 23.4693 8.14933 24.216 8.896C24.9627 9.64267 25.336 10.7307 25.336 12.16V24H20.632V13.632C20.632 12.9707 20.504 12.5013 20.248 12.224C19.992 11.9253 19.544 11.776 18.904 11.776C18.52 11.776 18.1573 11.8293 17.816 11.936C17.4747 12.0427 17.08 12.2133 16.632 12.448C16.184 12.6827 15.64 13.0027 15 13.408L14.744 10.784C15.768 9.78133 16.7707 9.03467 17.752 8.544C18.7547 8.032 19.8213 7.776 20.952 7.776ZM4.696 8.192L5.176 11.328L5.656 11.744V24H0.92V8.192H4.696ZM11.096 7.776C12.504 7.776 13.5707 8.14933 14.296 8.896C15.0427 9.62133 15.416 10.7093 15.416 12.16V24H10.872V13.632C10.872 12.9493 10.7227 12.4693 10.424 12.192C10.1467 11.9147 9.70933 11.776 9.112 11.776C8.74933 11.776 8.38667 11.8293 8.024 11.936C7.68267 12.0213 7.27733 12.1813 6.808 12.416C6.36 12.6507 5.80533 12.9813 5.144 13.408L4.856 10.784C5.90133 9.78133 6.91467 9.03467 7.896 8.544C8.87733 8.032 9.944 7.776 11.096 7.776ZM35.1235 7.776C35.8915 7.776 36.7235 7.808 37.6195 7.872C38.5155 7.91467 39.3902 7.97867 40.2435 8.064C41.0968 8.14933 41.8542 8.256 42.5155 8.384L42.1955 11.328C41.1715 11.3067 40.1368 11.296 39.0915 11.296C38.0675 11.2747 37.0648 11.264 36.0835 11.264C35.2515 11.2427 34.6115 11.2533 34.1635 11.296C33.7155 11.3387 33.3955 11.4453 33.2035 11.616C33.0328 11.7653 32.9475 12.0427 32.9475 12.448C32.9475 12.9173 33.1075 13.2373 33.4275 13.408C33.7475 13.5573 34.2808 13.728 35.0275 13.92L39.1555 14.912C40.4782 15.2533 41.4595 15.7653 42.0995 16.448C42.7395 17.1093 43.0595 18.112 43.0595 19.456C43.0595 20.7787 42.8142 21.792 42.3235 22.496C41.8328 23.2 41.0542 23.6907 39.9875 23.968C38.9208 24.224 37.5448 24.352 35.8595 24.352C35.1982 24.352 34.2168 24.32 32.9155 24.256C31.6142 24.192 30.1848 24.032 28.6275 23.776L28.9475 20.832C29.3315 20.8533 29.8222 20.8747 30.4195 20.896C31.0168 20.896 31.6675 20.896 32.3715 20.896C33.0755 20.896 33.7795 20.896 34.4835 20.896C35.5715 20.896 36.4035 20.8747 36.9795 20.832C37.5555 20.768 37.9502 20.64 38.1635 20.448C38.3768 20.256 38.4835 19.968 38.4835 19.584C38.4835 19.1147 38.3022 18.7947 37.9395 18.624C37.5768 18.4533 37.0008 18.272 36.2115 18.08L32.2115 17.088C31.2088 16.8107 30.4302 16.4587 29.8755 16.032C29.3208 15.6053 28.9262 15.0827 28.6915 14.464C28.4782 13.8453 28.3715 13.1093 28.3715 12.256C28.3715 11.168 28.5848 10.304 29.0115 9.664C29.4595 9.00267 30.1742 8.52267 31.1555 8.224C32.1582 7.92533 33.4808 7.776 35.1235 7.776ZM52.7315 0.927999C53.1155 0.927999 53.6168 0.938666 54.2355 0.959999C54.8755 0.981332 55.5155 1.024 56.1555 1.088C56.8168 1.13067 57.3822 1.19467 57.8515 1.28L57.4355 4.32H54.4275C53.6168 4.32 53.0515 4.48 52.7315 4.8C52.4115 5.12 52.2515 5.67467 52.2515 6.464V24H47.5155V5.856C47.5155 4.85333 47.6755 3.98933 47.9955 3.264C48.3368 2.53867 48.8915 1.97333 49.6595 1.568C50.4275 1.14133 51.4515 0.927999 52.7315 0.927999ZM56.6675 8.192V11.296H44.7635V8.352L47.6115 8.192H56.6675ZM67.3033 7.776C68.6259 7.776 69.7459 7.95733 70.6633 8.32C71.5806 8.66133 72.2739 9.25867 72.7433 10.112C73.2339 10.944 73.4792 12.096 73.4792 13.568V24H69.7033L69.0313 20.576L68.7113 20.096V13.536C68.7113 12.7893 68.5299 12.2453 68.1673 11.904C67.8259 11.5627 67.1646 11.392 66.1833 11.392C65.3726 11.392 64.3593 11.424 63.1433 11.488C61.9273 11.5307 60.6793 11.5947 59.3993 11.68L58.9513 8.544C59.7193 8.39467 60.6046 8.26667 61.6073 8.16C62.6099 8.05333 63.6126 7.968 64.6153 7.904C65.6179 7.81867 66.5139 7.776 67.3033 7.776ZM71.5273 14.272L71.4953 16.928L64.4553 16.96C63.8793 16.96 63.4633 17.0987 63.2073 17.376C62.9726 17.6533 62.8553 18.0267 62.8553 18.496V19.264C62.8553 19.7973 63.0046 20.2133 63.3033 20.512C63.6019 20.7893 64.0819 20.928 64.7433 20.928C65.2979 20.928 65.8953 20.8107 66.5353 20.576C67.1966 20.3413 67.8473 20.0107 68.4873 19.584C69.1273 19.1573 69.6926 18.656 70.1833 18.08V20.128C69.9913 20.448 69.7033 20.8533 69.3193 21.344C68.9566 21.8133 68.4873 22.2827 67.9113 22.752C67.3353 23.2 66.6633 23.584 65.8953 23.904C65.1273 24.224 64.2526 24.384 63.2713 24.384C62.3113 24.384 61.4473 24.2133 60.6793 23.872C59.9113 23.5307 59.3033 23.0293 58.8553 22.368C58.4073 21.7067 58.1833 20.8853 58.1833 19.904V18.272C58.1833 17.0133 58.6099 16.032 59.4633 15.328C60.3166 14.624 61.4899 14.272 62.9833 14.272H71.5273ZM84.6892 7.776C87.3559 7.776 89.2653 8.23467 90.4173 9.152C91.5906 10.048 92.1772 11.392 92.1772 13.184C92.1986 14.6347 91.8359 15.7227 91.0893 16.448C90.3426 17.152 89.0519 17.504 87.2173 17.504H78.3853V14.848H85.9053C86.6306 14.848 87.0893 14.6987 87.2813 14.4C87.4946 14.08 87.6013 13.6427 87.6013 13.088C87.5799 12.3413 87.3559 11.8293 86.9293 11.552C86.5239 11.2533 85.8306 11.104 84.8493 11.104C83.9746 11.104 83.2919 11.2213 82.8013 11.456C82.3106 11.6907 81.9693 12.1387 81.7773 12.8C81.5853 13.4613 81.4893 14.4213 81.4893 15.68C81.4893 17.0027 81.6066 18.0267 81.8413 18.752C82.0759 19.456 82.4706 19.9467 83.0253 20.224C83.6013 20.5013 84.3906 20.64 85.3933 20.64C86.1186 20.64 87.0146 20.6187 88.0813 20.576C89.1693 20.512 90.2573 20.416 91.3453 20.288L91.7933 23.2C91.1746 23.4987 90.4706 23.7333 89.6813 23.904C88.8919 24.0747 88.0813 24.192 87.2493 24.256C86.4173 24.3413 85.6173 24.384 84.8493 24.384C82.8439 24.384 81.2226 24.096 79.9852 23.52C78.7693 22.9227 77.8839 22.016 77.3293 20.8C76.7959 19.584 76.5293 18.0267 76.5293 16.128C76.5293 14.0587 76.8066 12.416 77.3613 11.2C77.9159 9.984 78.7906 9.10933 79.9852 8.576C81.1799 8.04267 82.7479 7.776 84.6892 7.776ZM106.272 7.776C109.258 7.776 110.752 9.23733 110.752 12.16V24H105.984V13.632C105.984 12.928 105.856 12.448 105.6 12.192C105.365 11.9147 104.938 11.776 104.32 11.776C103.637 11.776 102.933 11.904 102.208 12.16C101.482 12.416 100.586 12.832 99.5198 13.408L99.1038 10.944C100.277 9.92 101.472 9.14133 102.688 8.608C103.904 8.05333 105.098 7.776 106.272 7.776ZM99.9998 1.6L100.032 7.072C100.032 7.904 99.9784 8.69333 99.8718 9.44C99.7864 10.1867 99.6798 10.816 99.5518 11.328L99.9998 11.744V24H95.2638V1.6H99.9998Z" fill="#7B61FF"/>
<path d="M141.421 7.776C142.85 7.776 143.938 8.14933 144.685 8.896C145.431 9.64267 145.805 10.7307 145.805 12.16V24H141.101V13.632C141.101 12.9707 140.973 12.5013 140.717 12.224C140.461 11.9253 140.013 11.776 139.373 11.776C138.989 11.776 138.626 11.8293 138.285 11.936C137.943 12.0427 137.549 12.2133 137.101 12.448C136.653 12.6827 136.109 13.0027 135.469 13.408L135.213 10.784C136.237 9.78133 137.239 9.03467 138.221 8.544C139.223 8.032 140.29 7.776 141.421 7.776ZM125.165 8.192L125.645 11.328L126.125 11.744V24H121.389V8.192H125.165ZM131.565 7.776C132.973 7.776 134.039 8.14933 134.765 8.896C135.511 9.62133 135.885 10.7093 135.885 12.16V24H131.341V13.632C131.341 12.9493 131.191 12.4693 130.893 12.192C130.615 11.9147 130.178 11.776 129.581 11.776C129.218 11.776 128.855 11.8293 128.493 11.936C128.151 12.0213 127.746 12.1813 127.277 12.416C126.829 12.6507 126.274 12.9813 125.613 13.408L125.325 10.784C126.37 9.78133 127.383 9.03467 128.365 8.544C129.346 8.032 130.413 7.776 131.565 7.776ZM157.928 7.776C159.251 7.776 160.371 7.95733 161.288 8.32C162.206 8.66133 162.899 9.25867 163.368 10.112C163.859 10.944 164.104 12.096 164.104 13.568V24H160.328L159.656 20.576L159.336 20.096V13.536C159.336 12.7893 159.155 12.2453 158.792 11.904C158.451 11.5627 157.79 11.392 156.808 11.392C155.998 11.392 154.984 11.424 153.768 11.488C152.552 11.5307 151.304 11.5947 150.024 11.68L149.576 8.544C150.344 8.39467 151.23 8.26667 152.232 8.16C153.235 8.05333 154.238 7.968 155.24 7.904C156.243 7.81867 157.139 7.776 157.928 7.776ZM162.152 14.272L162.12 16.928L155.08 16.96C154.504 16.96 154.088 17.0987 153.832 17.376C153.598 17.6533 153.48 18.0267 153.48 18.496V19.264C153.48 19.7973 153.63 20.2133 153.928 20.512C154.227 20.7893 154.707 20.928 155.368 20.928C155.923 20.928 156.52 20.8107 157.16 20.576C157.822 20.3413 158.472 20.0107 159.112 19.584C159.752 19.1573 160.318 18.656 160.808 18.08V20.128C160.616 20.448 160.328 20.8533 159.944 21.344C159.582 21.8133 159.112 22.2827 158.536 22.752C157.96 23.2 157.288 23.584 156.52 23.904C155.752 24.224 154.878 24.384 153.896 24.384C152.936 24.384 152.072 24.2133 151.304 23.872C150.536 23.5307 149.928 23.0293 149.48 22.368C149.032 21.7067 148.808 20.8853 148.808 19.904V18.272C148.808 17.0133 149.235 16.032 150.088 15.328C150.942 14.624 152.115 14.272 153.608 14.272H162.152Z" fill="white"/>
</svg>
